<?xml version="1.0" standalone="no"?><!-- Generator: Gravit.io --><svg xmlns="http://www.w3.org/2000/svg" xmlns:xlink="http://www.w3.org/1999/xlink" style="isolation:isolate" viewBox="0 0 512 512" width="512" height="512"><defs><clipPath id="_clipPath_0nHfCbGVB2ts0xsDMwWcKiEmdiMw7qUe"><rect width="512" height="512"/></clipPath></defs><g clip-path="url(#_clipPath_0nHfCbGVB2ts0xsDMwWcKiEmdiMw7qUe)"><g><g><path d=" M 79.243 0.718 C 92.431 -3.454 104.383 11.382 102.941 23.694 C 103.044 121.677 102.889 219.608 102.941 317.59 C 102.631 359.266 119.168 401.148 149.562 429.894 C 157.547 437.621 166.923 443.7 174.495 451.839 C 184.077 466.367 164.038 486.303 149.614 477.185 C 103.25 447.873 75.843 396.512 64.974 343.914 C 61.522 237.38 64.562 130.589 63.428 23.952 C 61.934 13.443 71.001 5.406 79.243 0.718 Z " fill="rgb(95,205,245)"/><path d=" M 228.896 129.868 C 283.657 120.646 341.56 138.368 383.03 174.995 C 423.779 210.335 448.815 263.55 448.712 317.641 C 449.433 362.048 433.361 406.351 405.233 440.557 C 363.609 492.33 294.681 518.5 229.102 510.618 C 221.838 503.252 212.308 492.588 220.087 482.079 C 228.741 466.985 247.905 475.536 261.711 473.785 C 335.687 473.321 402.554 412.275 410.745 338.969 C 424.5 252.217 350.215 164.538 262.175 164.744 C 248.42 162.786 229.411 171.801 220.396 157.068 C 212.978 147.847 219.314 134.504 228.896 129.868 Z " fill="rgb(95,205,245)"/></g><g><path d=" M 150.541 67.019 C 162.75 61.919 177.329 72.84 176.144 85.925 C 176.453 164.898 176.041 243.82 176.299 322.793 C 176.041 352.723 196.183 380.542 222.817 393.112 C 255.22 409.339 298.081 399.293 320.439 370.96 C 342.745 343.502 344.29 300.435 322.602 272.256 C 306.014 248.508 275.569 234.959 246.772 239.08 C 238.117 239.905 227.711 241.862 221.478 234.032 C 211.896 224.141 218.541 206.78 231.523 203.998 C 299.214 186.432 372.624 242.841 374.891 312.284 C 380.506 372.557 332.236 430.306 272.426 437.054 C 205.611 447.666 140.186 389.609 139.001 322.742 C 138.538 245.365 139.156 167.938 138.692 90.561 C 137.713 81.392 140.856 70.213 150.541 67.019 Z " fill="rgb(40,187,235)"/></g></g></g></svg>